<?xml version="1.0" standalone="no"?>
<!DOCTYPE svg PUBLIC "-//W3C//DTD SVG 20010904//EN"
 "http://www.w3.org/TR/2001/REC-SVG-20010904/DTD/svg10.dtd">
<svg version="1.0" xmlns="http://www.w3.org/2000/svg"
 width="1200.000000pt" height="1200.000000pt" viewBox="0 0 1200.000000 1200.000000"
 preserveAspectRatio="xMidYMid meet">
<metadata>
Created by potrace 1.14, written by Peter Selinger 2001-2017
</metadata>
<g transform="translate(0.000000,1200.000000) scale(0.100000,-0.100000)"
fill="#000000" stroke="none">
<path d="M5877 10013 c-1 -1 -27 -4 -57 -7 -92 -9 -144 -16 -165 -20 -232 -48
-565 -185 -740 -305 -172 -118 -316 -250 -491 -446 -67 -76 -164 -200 -164
-210 0 -3 -21 -37 -47 -77 -45 -70 -183 -306 -183 -313 0 -2 -16 -39 -36 -82
-79 -173 -120 -285 -174 -476 -33 -118 -39 -150 -54 -262 -8 -59 -16 -115 -21
-144 -2 -14 -7 -53 -10 -86 -4 -33 -9 -73 -11 -90 -22 -166 -22 -624 0 -810 2
-16 7 -60 10 -97 4 -37 8 -75 10 -85 2 -10 7 -40 10 -67 4 -27 9 -52 11 -55 1
-3 6 -24 9 -46 5 -32 12 -73 21 -115 1 -3 4 -18 8 -35 4 -16 9 -39 12 -50 55
-249 214 -715 329 -969 13 -28 36 -80 52 -116 31 -71 194 -396 239 -475 27
-49 87 -155 105 -185 42 -71 60 -104 60 -111 0 -5 5 -9 10 -9 6 0 10 -5 10
-11 0 -6 25 -51 55 -100 30 -49 55 -93 55 -99 0 -5 4 -10 10 -10 5 0 9 -3 8
-7 -1 -5 5 -19 13 -33 117 -184 189 -302 189 -308 0 -4 -28 -6 -63 -4 -59 3
-64 5 -74 32 -19 51 -51 59 -270 64 -224 6 -775 7 -933 1 -182 -6 -573 -28
-705 -40 -27 -2 -79 -7 -115 -10 -84 -7 -153 -14 -210 -20 -25 -3 -72 -8 -105
-10 -33 -3 -76 -8 -95 -10 -31 -5 -72 -9 -185 -20 -16 -1 -52 -6 -80 -10 -86
-12 -109 -15 -160 -20 -27 -4 -61 -8 -75 -10 -14 -2 -47 -7 -75 -10 -27 -3
-75 -10 -105 -15 -30 -5 -73 -11 -95 -14 -22 -3 -53 -8 -70 -11 -16 -3 -91
-17 -165 -31 -74 -14 -160 -32 -190 -39 -30 -8 -66 -16 -80 -19 -50 -10 -188
-48 -295 -83 -489 -158 -748 -340 -772 -543 -7 -58 19 -151 54 -200 109 -149
378 -293 715 -384 29 -8 89 -24 133 -36 44 -12 87 -23 95 -25 8 -2 53 -12 100
-23 47 -11 103 -23 125 -28 22 -4 42 -8 45 -9 3 0 21 -4 40 -8 19 -4 46 -9 60
-12 58 -13 431 -73 495 -81 22 -3 47 -7 55 -9 8 -3 38 -7 65 -10 28 -4 61 -8
75 -10 31 -6 177 -26 210 -30 14 -2 45 -6 70 -9 25 -3 65 -8 90 -11 25 -3 62
-8 83 -10 85 -11 121 -15 257 -30 14 -1 57 -5 95 -9 39 -4 88 -9 109 -12 21
-3 69 -7 105 -10 36 -3 86 -7 111 -9 99 -8 209 -16 290 -20 47 -3 123 -7 170
-10 47 -3 155 -8 240 -10 231 -8 405 -13 605 -20 99 -3 241 -8 315 -10 74 -3
205 -7 290 -10 85 -3 223 -8 305 -11 83 -4 402 -7 710 -8 486 -1 681 3 985 19
179 10 281 15 340 20 63 4 174 11 335 21 44 2 107 6 140 8 54 4 118 8 360 21
44 3 133 7 199 10 65 3 155 7 200 10 44 2 131 7 191 10 157 8 366 22 450 30
176 18 247 26 275 30 35 6 130 17 165 20 17 1 44 5 60 8 17 3 53 9 80 12 88
11 109 14 135 19 14 3 45 8 70 11 25 3 52 8 60 10 8 2 34 7 58 10 41 6 175 29
217 38 11 3 40 8 65 13 25 4 47 8 50 9 17 5 79 17 100 19 14 2 43 8 65 14 22
6 51 13 65 16 58 10 284 68 395 101 66 20 127 37 135 40 63 18 203 75 296 121
184 91 302 203 323 306 41 201 -111 359 -494 516 -45 18 -229 79 -265 87 -8 2
-46 13 -85 25 -87 25 -355 87 -460 106 -16 3 -50 10 -75 15 -25 6 -58 12 -75
15 -16 2 -41 6 -55 9 -43 9 -92 17 -190 30 -19 3 -45 7 -57 9 -11 3 -43 7 -70
11 -26 4 -61 9 -78 12 -31 5 -70 10 -132 18 -21 2 -54 7 -73 10 -42 6 -118 15
-180 20 -25 3 -54 7 -65 9 -11 2 -54 7 -95 11 -41 4 -82 9 -90 10 -8 2 -51 6
-95 10 -44 3 -91 8 -105 10 -14 2 -56 6 -95 10 -38 4 -86 8 -107 10 -20 2 -67
7 -105 10 -37 3 -88 7 -113 10 -25 2 -79 7 -120 10 -102 8 -184 14 -250 20
-55 5 -102 9 -260 20 -47 3 -106 8 -132 11 -26 2 -89 7 -140 10 -51 3 -122 7
-158 9 -36 2 -108 6 -160 10 -52 3 -145 7 -206 10 -62 2 -116 5 -120 6 -36 8
-109 -65 -97 -97 4 -11 -11 -14 -76 -14 l-81 0 94 188 c130 258 205 419 316
677 75 173 186 484 283 795 90 286 107 346 128 445 28 135 27 134 33 153 3 9
8 37 11 62 3 25 10 61 15 80 5 19 11 51 14 70 3 19 8 46 11 60 3 14 8 41 11
60 3 19 8 44 11 54 3 11 7 36 9 55 2 20 5 50 8 66 50 283 65 861 31 1150 -3
22 -7 65 -10 95 -2 30 -7 64 -9 76 -2 11 -7 47 -10 80 -12 115 -64 352 -103
464 -8 25 -16 52 -18 60 -20 94 -138 372 -216 508 -173 299 -290 449 -474 607
-32 28 -65 57 -75 66 -9 9 -66 51 -126 94 -157 113 -361 213 -488 239 -11 3
-64 16 -116 29 -52 14 -108 27 -125 30 -16 3 -42 8 -57 12 -23 6 -266 13 -271
8z m-633 -1939 c3 -8 2 -12 -4 -9 -6 3 -10 10 -10 16 0 14 7 11 14 -7z"/>
</g>
</svg>
